<?xml version="1.0" encoding="iso-8859-1"?>

<!DOCTYPE svg PUBLIC "-//W3C//DTD SVG 1.1//EN" "http://www.w3.org/Graphics/SVG/1.1/DTD/svg11.dtd">
<!-- Uploaded to: SVG Repo, www.svgrepo.com, Generator: SVG Repo Mixer Tools -->
<svg fill="#000000" version="1.1" id="Layer_1" xmlns="http://www.w3.org/2000/svg" xmlns:xlink="http://www.w3.org/1999/xlink" 
	 width="800px" height="800px" viewBox="0 0 28.359 32" xml:space="preserve">
<g id="atom">
	<path d="M24.236,16c3.262-3.119,4.854-6.176,3.799-8.001c-0.602-1.042-1.979-1.54-3.859-1.54c-1.408,0-3.109,0.297-4.967,0.838
		C18.14,2.908,16.287,0,14.179,0c-2.11,0-3.962,2.908-5.031,7.297C7.293,6.756,5.591,6.459,4.183,6.459
		C2.304,6.459,0.924,6.957,0.323,8c-1.055,1.825,0.536,4.881,3.798,8c-3.262,3.118-4.852,6.174-3.798,7.999
		c0.602,1.043,1.979,1.541,3.859,1.541c1.408,0,3.109-0.297,4.965-0.838C10.217,29.091,12.07,32,14.179,32
		c2.107,0,3.961-2.909,5.029-7.298c1.855,0.541,3.559,0.838,4.967,0.838c1.879,0,3.26-0.498,3.859-1.54
		C29.09,22.175,27.498,19.119,24.236,16z M24.176,8.459c1.438,0,2.021,0.354,2.129,0.54c0.371,0.646-0.68,2.917-3.568,5.664
		c-0.828-0.692-1.727-1.379-2.695-2.048c-0.094-1.173-0.24-2.291-0.426-3.354C21.318,8.752,22.89,8.459,24.176,8.459z
		 M16.179,19.463c-0.664,0.383-1.332,0.735-2,1.072c-0.669-0.337-1.338-0.689-2-1.072c-0.667-0.385-1.308-0.786-1.933-1.193
		c-0.04-0.729-0.067-1.478-0.067-2.27c0-0.793,0.027-1.541,0.067-2.27c0.611-0.399,1.245-0.8,1.933-1.195
		c0.662-0.383,1.331-0.734,2-1.072c0.668,0.338,1.336,0.689,2,1.072c0.666,0.385,1.307,0.787,1.932,1.195
		c0.039,0.729,0.068,1.477,0.068,2.27c0,0.792-0.029,1.541-0.068,2.27C17.498,18.668,16.865,19.066,16.179,19.463z M17.896,20.763
		c-0.059,0.458-0.121,0.899-0.191,1.324c-0.412-0.155-0.826-0.321-1.246-0.498c0.24-0.133,0.48-0.255,0.721-0.394
		C17.424,21.054,17.656,20.907,17.896,20.763z M11.899,21.589c-0.42,0.178-0.835,0.343-1.247,0.499
		c-0.07-0.425-0.134-0.867-0.19-1.325c0.238,0.146,0.473,0.291,0.718,0.434C11.419,21.334,11.658,21.456,11.899,21.589z
		 M8.194,16.83c-0.365-0.275-0.719-0.553-1.062-0.832c0.336-0.276,0.689-0.555,1.062-0.835C8.189,15.441,8.178,15.717,8.178,16
		C8.179,16.28,8.189,16.553,8.194,16.83z M10.461,11.236c0.058-0.458,0.12-0.9,0.19-1.324c0.412,0.154,0.827,0.32,1.247,0.498
		c-0.24,0.133-0.479,0.254-0.721,0.394C10.934,10.945,10.699,11.092,10.461,11.236z M16.457,10.41
		c0.42-0.178,0.836-0.344,1.248-0.499c0.07,0.425,0.133,0.867,0.189,1.325c-0.238-0.146-0.473-0.291-0.717-0.434
		C16.937,10.664,16.697,10.543,16.457,10.41z M20.162,15.168c0.365,0.275,0.719,0.553,1.063,0.834
		c-0.336,0.275-0.689,0.554-1.063,0.834c0.006-0.278,0.018-0.554,0.018-0.836C20.179,15.719,20.168,15.445,20.162,15.168z M14.179,2
		c0.746,0,2.188,2.047,3.121,5.926c-1.014,0.371-2.059,0.81-3.121,1.313c-1.066-0.505-2.109-0.942-3.123-1.313
		C11.989,4.047,13.431,2,14.179,2z M3.805,12.746C1.928,10.465,1.911,9.247,2.056,9c0.106-0.188,0.689-0.541,2.127-0.541
		c1.284,0,2.854,0.293,4.56,0.805c-0.186,1.062-0.331,2.181-0.426,3.353c-0.971,0.67-1.869,1.356-2.697,2.051
		C4.942,14.027,4.328,13.384,3.805,12.746z M4.183,23.54c-1.437,0-2.021-0.354-2.127-0.541c-0.374-0.647,0.677-2.917,3.566-5.663
		c0.827,0.692,1.725,1.379,2.693,2.048c0.095,1.173,0.24,2.291,0.426,3.354C7.037,23.247,5.467,23.54,4.183,23.54z M14.179,30
		c-0.749,0-2.19-2.047-3.123-5.927c1.014-0.371,2.058-0.81,3.123-1.313c1.064,0.505,2.107,0.942,3.121,1.313
		C16.367,27.953,14.926,30,14.179,30z M26.304,23c-0.107,0.188-0.691,0.54-2.129,0.54c-1.285,0-2.855-0.293-4.561-0.804
		c0.186-1.063,0.33-2.181,0.426-3.354c0.973-0.67,1.869-1.357,2.697-2.052c0.678,0.641,1.291,1.284,1.816,1.922
		C26.431,21.535,26.445,22.753,26.304,23z"/>
</g>
<g id="Layer_1_1_">
</g>
</svg>